<svg xmlns="http://www.w3.org/2000/svg" width="1600" height="900" viewBox="0 0 1600 900">
  <defs>
    <linearGradient id="g" x1="0" y1="0" x2="1" y2="1">
      <stop offset="0" stop-color="#f4f2ee" />
      <stop offset="1" stop-color="#efece7" />
    </linearGradient>
    <pattern id="noise" width="140" height="140" patternUnits="userSpaceOnUse">
      <circle cx="12" cy="26" r="1.2" fill="#000" opacity="0.05" />
      <circle cx="88" cy="74" r="1.1" fill="#000" opacity="0.04" />
      <circle cx="46" cy="118" r="1.3" fill="#000" opacity="0.04" />
      <circle cx="118" cy="36" r="1.1" fill="#000" opacity="0.03" />
      <circle cx="126" cy="122" r="1.2" fill="#000" opacity="0.03" />
      <circle cx="22" cy="96" r="1.1" fill="#000" opacity="0.03" />
    </pattern>
  </defs>

  <rect width="1600" height="900" fill="url(#g)" />
  <rect width="1600" height="900" fill="url(#noise)" />

  <g fill="none" stroke="#0f5f4f" opacity="0.30">
    <path d="M-40,740 C220,640 420,760 660,700 C900,640 1040,520 1320,600 C1480,648 1580,620 1680,560" stroke-width="2" />
    <path d="M-40,790 C220,690 420,810 660,750 C900,690 1040,570 1320,650 C1480,698 1580,670 1680,610" stroke-width="1.6" />
  </g>

  <g font-family="Georgia, 'Times New Roman', serif" text-anchor="middle">
    <text x="800" y="430" font-size="42" fill="#0f5f4f" opacity="0.85">Ajoute ta photo ici</text>
    <text x="800" y="480" font-size="20" fill="#0f5f4f" opacity="0.65">Remplace ce fichier par une image (męme nom) si tu veux</text>
  </g>
</svg>

