<svg xmlns="http://www.w3.org/2000/svg" width="620" height="620" viewBox="0 0 620 620">
  <defs>
    <linearGradient id="i" x1="0" y1="0" x2="1" y2="1">
      <stop offset="0" stop-color="#ffffff" stop-opacity="0.16"/>
      <stop offset="1" stop-color="#e0c67a" stop-opacity="0.10"/>
    </linearGradient>
    <pattern id="p" width="155" height="155" patternUnits="userSpaceOnUse">
      <rect width="155" height="155" fill="none"/>
      <g fill="none" stroke="url(#i)" stroke-width="2.2" stroke-linecap="round" stroke-linejoin="round">
        <!-- diamonds -->
        <path d="M77.5 18 L120 77.5 L77.5 137 L35 77.5 Z"/>
        <path d="M77.5 42 L101 77.5 L77.5 113 L54 77.5 Z"/>
        <!-- chevrons -->
        <path d="M18 77.5 L44 54 L70 77.5 L44 101 Z"/>
        <path d="M137 77.5 L111 54 L85 77.5 L111 101 Z"/>
        <!-- crown-ish motif -->
        <path d="M77.5 60 L88 72 L77.5 84 L67 72 Z"/>
        <path d="M64 72 L77.5 56 L91 72"/>
      </g>
      <!-- dots like beads -->
      <g fill="#e0c67a" fill-opacity="0.12">
        <circle cx="24" cy="24" r="3"/>
        <circle cx="131" cy="24" r="3"/>
        <circle cx="24" cy="131" r="3"/>
        <circle cx="131" cy="131" r="3"/>
        <circle cx="77.5" cy="77.5" r="2.8"/>
      </g>
    </pattern>
  </defs>

  <rect width="620" height="620" fill="url(#p)"/>
</svg>
